<svg xmlns="http://www.w3.org/2000/svg"
    xmlns:xlink="http://www.w3.org/1999/xlink" width="139.012" height="138.981" viewBox="0 0 139.012 138.981">
    <defs>
        <linearGradient id="a" x1="-0.092" y1="0.462" x2="1.097" y2="0.462" gradientUnits="objectBoundingBox">
            <stop offset="0" stop-color="#3db068"/>
            <stop offset="1" stop-color="#08605d"/>
        </linearGradient>
    </defs>
    <path d="M137.783,60.387a14.385,14.385,0,0,0-1.824-2.871l-1.969-2.424c-5.213-6.38-10.425-12.817-15.736-19.185-2.641-3.167-5.317-6.333-8.074-9.424s-5.508-6.182-8.293-9.239-5.618-6.072-8.63-8.978C91.769,6.809,90.2,5.394,88.572,4.055c-.817-.673-1.639-1.34-2.491-1.937-.411-.3-.892-.58-1.338-.893a7.3,7.3,0,0,0-.782-.447A4.051,4.051,0,0,0,83.1.441a11.852,11.852,0,0,0-3.348-.447,18.677,18.677,0,0,0-3.238.3A24.672,24.672,0,0,0,70.455,2.3C66.737,4.13,63.088,6.1,59.48,8.1a191.453,191.453,0,0,0-20.8,13.56A144.853,144.853,0,0,0,20.12,38.2C14.392,44.24,9.185,50.643,4.048,57.162A21.727,21.727,0,0,0,.92,62.747a14.992,14.992,0,0,0-.817,3.2,9.106,9.106,0,0,0,.151,3.48,7.792,7.792,0,0,0,.3.858,2,2,0,0,0,.185.412l.185.336.707,1.38c.481.934.967,1.862,1.448,2.755C4.042,77,5.044,78.824,6.087,80.61a247.262,247.262,0,0,0,13.506,20.878c4.819,6.722,9.846,13.3,14.995,19.783,2.566,3.242,5.131,6.484,7.738,9.686l1.969,2.424c.336.412.672.817,1.042,1.229A12.006,12.006,0,0,0,46.53,135.8a14.2,14.2,0,0,0,2.792,2.047A11.3,11.3,0,0,0,51,138.56a9.87,9.87,0,0,0,1.824.371,11.094,11.094,0,0,0,6.805-1.6,17.1,17.1,0,0,0,1.454-1l.672-.58.579-.522L64.6,133.1c3.012-2.83,6.029-5.591,9.076-8.38q9.151-8.328,18.533-16.355c12.5-10.729,25.3-21.157,38.393-31.1l2.455-1.862,1.228-.934a12.131,12.131,0,0,0,1.3-1.119,10.889,10.889,0,0,0,3.313-6.107A11.7,11.7,0,0,0,137.783,60.387ZM85.438,29.242,95.522,72.229a5.058,5.058,0,0,1-3.533,5.8L44.815,93.6a5.012,5.012,0,0,1-6.29-4.245L31.46,47.018a5.029,5.029,0,0,1,3.348-5.22l44.231-16.2a5,5,0,0,1,6.4,3.648Zm30.354,37.773a13.408,13.408,0,0,0-1.042-3.132c-.226-.481-25.408-41.723-26-42.691C89.6,21.865,109.5,51.4,116.458,61.5a11.262,11.262,0,0,1,2.421,7.539,7.744,7.744,0,0,1-5.508,6.89,10.277,10.277,0,0,0,1.6-2.384,10.8,10.8,0,0,0,.828-6.525Zm-6.1.783a13.457,13.457,0,0,0-1.043-3.132c-.075-.186-2.867-5.846-6.62-12.852C95.556,39.7,90.448,30.246,89.753,29.092c.707,1.079,5.792,8.421,13.28,20.6,3.012,4.918,8.688,14.864,9.076,15.833a8.943,8.943,0,0,1,.672,4.321,7.748,7.748,0,0,1-5.508,6.89,10.305,10.305,0,0,0,1.6-2.384A10.738,10.738,0,0,0,109.694,67.8Zm-5.792.818C103.491,66.644,90.958,38.33,90.547,37.3c.707,1.079,13.245,24.44,14.027,25.814a14,14,0,0,1,2.415,7.54,7.747,7.747,0,0,1-5.508,6.89,10.277,10.277,0,0,0,1.6-2.384,10.536,10.536,0,0,0,.851-6.536Zm-5.693.58c-.11-.522-1.523-5.365-3.012-10.393-1.639-5.55-3.388-11.286-3.573-11.6.446.673,5.467,11.657,7.257,16.465a26.424,26.424,0,0,1,2.421,7.54,7.747,7.747,0,0,1-5.508,6.89,10.27,10.27,0,0,0,2.421-8.9Zm22.211,3.613a10.52,10.52,0,0,0,.857-6.554,13.453,13.453,0,0,0-1.042-3.132,10.719,10.719,0,0,0-.817-1.415c-.151-.261-9.933-14.94-18.533-27.676C94.34,24.347,88.462,15.781,88.143,15.37c.857.673,4.39,5.069,6.475,7.673,7.738,9.685,27.308,37.663,27.308,37.663a9.819,9.819,0,0,1,2.421,7.54,7.748,7.748,0,0,1-5.508,6.89,10.755,10.755,0,0,0,1.61-2.3ZM15.591,59.772a75.219,75.219,0,0,0,4.911,10.8c5.062,10.283,12.574,24.77,15.637,30.657C34.4,98.4,24.9,83.127,18.765,71.806a98.654,98.654,0,0,1-4.5-9.39,9.092,9.092,0,0,1-.741-2.871,9.8,9.8,0,0,1,4.24-8.978,10.391,10.391,0,0,0-2.149,9.221Zm4.465-2.459a28.584,28.584,0,0,0,1.263,4.025c.579,1.491,2.01,4.06,3.423,7.151,3.9,8.566,9.411,20.751,9.967,21.865C33.742,88.712,20.16,65.02,18.863,61.111a15.346,15.346,0,0,1-.857-4.025,9.8,9.8,0,0,1,4.24-8.978,10.322,10.322,0,0,0-2.189,9.221ZM24.6,54.819a30.916,30.916,0,0,0,1.378,4.135c2.085,5.7,7.4,21.534,7.738,22.537-.521-1.119-8.965-18.959-10.3-22.874a15.362,15.362,0,0,1-.857-4.025,9.8,9.8,0,0,1,4.239-8.978,10.451,10.451,0,0,0-2.178,9.222Zm4.576-2.645c.11.708,2.676,15.125,2.792,15.758-.151-.487-2.421-7.6-3.759-11.512a19.018,19.018,0,0,1-1.042-4.4A9.8,9.8,0,0,1,31.4,43.046,10.19,10.19,0,0,0,29.19,52.2ZM74.347,24.121c-.932.371-18.638,6.7-19.008,6.855a201.341,201.341,0,0,1,20.723-8.868,16.275,16.275,0,0,1,3.475-.58,5.547,5.547,0,0,1,4.575,2.419,14.143,14.143,0,0,0-9.759.191Zm-.035-3.909c-.411.151-5.879,2.32-11.867,5.254-7.7,3.839-16.367,8.7-17.6,9.314,1.523-1.079,14.693-8.9,23.584-13.409a47.769,47.769,0,0,1,7.628-3.167,16.288,16.288,0,0,1,3.475-.58,5.546,5.546,0,0,1,4.575,2.424,14.253,14.253,0,0,0-9.794.18Zm9.747-3.839a14.46,14.46,0,0,0-9.782.151c-1.3.487-4.541,1.937-5.392,2.32-6.66,3.2-14.137,7.377-20.647,11.251-3.533,2.088-10.715,6.7-12.742,8.044,1.934-1.566,9.933-7.076,12.313-8.607,4.541-2.941,8-4.993,12.608-7.54a84.576,84.576,0,0,1,15.638-7.487,16.275,16.275,0,0,1,3.475-.58,5.546,5.546,0,0,1,4.575,2.418ZM74.214,13.1c-.932.371-4.541,1.937-5.392,2.32A222.848,222.848,0,0,0,38.949,33.447c-3.128,2.233-7.662,5.55-9.672,7.006,1.934-1.566,7.257-5.8,10.489-8.305a180.254,180.254,0,0,1,20.572-13.6,76.982,76.982,0,0,1,15.638-7.487,16.276,16.276,0,0,1,3.475-.58A5.547,5.547,0,0,1,84.025,12.9a14.252,14.252,0,0,0-9.823.209Zm-.035-3.242c-.932.371-4.541,1.937-5.392,2.32A168.414,168.414,0,0,0,47.769,24.5C40.443,29.5,26.919,40.412,25,41.978c1.859-1.786,2.38-2.2,5.433-4.918s6.249-5.254,9.522-7.783A190.676,190.676,0,0,1,60.308,15.358,76.076,76.076,0,0,1,75.946,7.871a16.277,16.277,0,0,1,3.475-.58A5.546,5.546,0,0,1,84,9.709a13.807,13.807,0,0,0-9.828.151Zm-.035-3.132c-.933.371-4.541,1.937-5.392,2.32A159.1,159.1,0,0,0,48.736,20.926c-4.5,3.091-13.8,9.651-18.713,13.821-1.488,1.264-7.888,7.151-9.672,8.9,1.738-1.937,7-6.96,10.043-9.72s6.214-5.365,9.452-7.859A190.53,190.53,0,0,1,60.233,12.215,76.072,76.072,0,0,1,75.87,4.727a16.278,16.278,0,0,1,3.475-.58,5.546,5.546,0,0,1,4.575,2.424,13.882,13.882,0,0,0-9.788.174ZM21.5,39.5c2.867-2.94,5.792-5.8,8.855-8.531s6.214-5.365,9.452-7.858A194.328,194.328,0,0,1,60.2,9.257,76.065,76.065,0,0,1,75.836,1.769a16.273,16.273,0,0,1,3.475-.58,5.546,5.546,0,0,1,4.575,2.424,14.038,14.038,0,0,0-9.782.151c-.932.371-4.541,1.937-5.392,2.32A163.685,163.685,0,0,0,48.7,17.968q-4.8,3.294-9.487,6.7c-3.128,2.273-6.215,4.64-9.192,7.192-1.488,1.264-12.128,11.547-13.9,13.409,1.766-1.949,3.55-3.886,5.375-5.747ZM13.616,52.911a10.392,10.392,0,0,0-2.195,9.2A66.9,66.9,0,0,0,16.668,73.03c6.371,11.918,16.7,29.729,20.352,35.725-.631-.968-17.259-26.486-21.389-33.452A38.15,38.15,0,0,1,9.382,61.894,9.969,9.969,0,0,1,13.6,52.94Zm-3.944,2.2A9.991,9.991,0,0,0,7.4,64.388a174.117,174.117,0,0,0,12.539,23.2c6.064,10.057,10.193,16.952,16.889,26.1-2.27-3.091-7.7-10.5-11.5-15.723-4.8-6.67-9.336-13.525-13.541-20.6A38.388,38.388,0,0,1,5.421,64.023a9.94,9.94,0,0,1,4.21-8.885ZM21.689,100c-4.8-6.67-9.336-13.525-13.541-20.6A38.382,38.382,0,0,1,1.778,66.059a9.8,9.8,0,0,1,4.24-8.978,9.991,9.991,0,0,0-2.27,9.279,174.059,174.059,0,0,0,12.539,23.2C22.657,100.1,31.281,112.1,38.572,121.967c-1.141-1.38-12.284-15.607-16.894-21.94ZM46.727,96.35c1.564-.3,6.174-2.424,10.9-4.321,5.838-2.32,11.867-4.506,12.354-4.692-.446.261-5.913,3.352-11.05,6.258-4.465,2.535-8.688,4.953-9.191,5.22a7.795,7.795,0,0,1-11.2-4.582,10.536,10.536,0,0,0,8.155,2.14Zm1.263,6.107a10.98,10.98,0,0,0,2.317-.708c2.531-1.159,6.585-3.427,10.935-5.8,8.554-4.64,18.116-10.022,18.6-10.283-.446.412-9.151,6.629-16.929,11.808-5.954,3.95-11.456,7.192-11.9,7.412a7.486,7.486,0,0,1-4.355.934,7.866,7.866,0,0,1-6.846-5.516,10.267,10.267,0,0,0,8.166,2.181Zm-6.921,3.764a10.409,10.409,0,0,0,8.108,2.163,7.589,7.589,0,0,0,2.9-.933c9.116-5.33,36.829-23.095,37.611-23.506-.741.673-30.916,23.506-38.225,27.258a4.851,4.851,0,0,1-1.3.412,10.543,10.543,0,0,1-2.23.15,7.965,7.965,0,0,1-6.869-5.521Zm9.452,8.456A49.708,49.708,0,0,0,63.169,107c11.832-8.119,35-24.179,35.862-24.625-.481.447-16.744,13.188-29.723,23.094-8.294,6.333-15.325,11.4-15.7,11.6a7.795,7.795,0,0,1-11.2-4.582,10.09,10.09,0,0,0,8.1,2.21Zm-6.88,3.839a10.175,10.175,0,0,0,8.108,2.164,11.52,11.52,0,0,0,2.9-.969c.579-.3,7.442-5.44,16.257-11.808,13.987-10.132,32.665-23.547,37.8-27.16-10.118,8.531-52.641,41.613-53.533,42.169a7.463,7.463,0,0,1-4.685,1.12,8.016,8.016,0,0,1-6.857-5.493Zm1.228,6.148a10.086,10.086,0,0,0,8.149,2.163A14.335,14.335,0,0,0,58.9,123.66c1.263-.933,49.924-38.277,58.368-44.367-6.37,5.255-26.224,21.72-40.993,33.864-9.452,7.749-16.889,13.635-17.114,13.856a9.575,9.575,0,0,1-7.4,3.166,8.021,8.021,0,0,1-6.9-5.486Zm15.475,8.421a9.022,9.022,0,0,1-7.367,3.2,7.867,7.867,0,0,1-6.846-5.515A9.951,9.951,0,0,0,59.9,129.8c.371-.336,7.964-6.559,17.78-14.528C96.356,100.149,123.547,78.916,125,77.948,113.881,87.471,60.922,132.58,60.331,133.1ZM130.468,67.52a7.745,7.745,0,0,1-5.507,6.89,10.3,10.3,0,0,0,1.6-2.384,10.52,10.52,0,0,0,.857-6.553,13.454,13.454,0,0,0-1.042-3.132,10.732,10.732,0,0,0-.817-1.415c-.295-.447-.631-.893-.932-1.264,0,0-17.41-23.135-22.431-30.065-6.846-9.39-14.1-19.075-14.619-19.783,1.489,1.456,2.867,3.242,4.28,4.692,2.9,3.016,29.127,36.584,34.3,42.987l1.934,2.424a9.648,9.648,0,0,1,2.363,7.621Zm5.792-.707a8.066,8.066,0,0,1-5.542,6.855,10.3,10.3,0,0,0,1.6-2.384,10.52,10.52,0,0,0,.857-6.554,13.405,13.405,0,0,0-1.042-3.132,10.718,10.718,0,0,0-.817-1.415c-.295-.447-.631-.893-.932-1.264l-3.574-4.582L119.7,45.174c-4.726-6.107-9.6-12.11-14.479-18.141S88.108,7.03,87,5.986c1.523,1.3,2.936,2.755,4.39,4.17,2.936,2.871,5.728,5.846,8.554,8.868s5.507,6.107,8.224,9.2,5.392,6.223,8.033,9.389c5.282,6.333,10.425,12.759,15.637,19.185l1.935,2.384a13.091,13.091,0,0,1,1.488,2.32,10.236,10.236,0,0,1,1,5.324Z" transform="translate(-0.003 0.006)" fill="url(#a)"/>
</svg>